<svg width="24" height="24" viewBox="0 0 24 24" xmlns="http://www.w3.org/2000/svg">
    <path d="M11.122 2.32a1.364 1.364 0 0 1 1.652-.08l.104.08 8.637 7.273c.273.23.444.558.478.91l.007.133v10c0 .71-.54 1.292-1.232 1.358l-.132.006H14.5v-6.818a.455.455 0 0 0-.373-.447l-.082-.008h-4.09a.455.455 0 0 0-.448.373l-.007.082V22H3.364c-.71 0-1.292-.54-1.358-1.232L2 20.636v-10c0-.357.14-.699.388-.952l.097-.09 8.637-7.273z" fill="#5F0080" fill-rule="nonzero" stroke="#5F0080" stroke-linejoin="round"/>
</svg>
