<svg xmlns="http://www.w3.org/2000/svg" width="20" height="20" viewBox="0 0 20 20">
    <g fill="none" fill-rule="evenodd" stroke-linejoin="round">
        <g stroke="#999">
            <g>
                <g>
                    <path d="M9.97 2.5c1.511 0 2.877.606 3.874 1.59.998.986 1.626 2.35 1.656 3.876 0 1.9-.965 3.84-2.64 5.685-.552.61-1.144 1.167-1.744 1.666-.137.114-.269.22-.395.32l-.186.143-1.44-.211c-.796-.674-1.412-1.262-1.987-1.907C5.45 11.807 4.5 9.885 4.5 8.015c0-1.534.607-2.912 1.593-3.906C7.08 3.113 8.447 2.5 9.97 2.5zm.03 4c-.414 0-.79.168-1.06.44-.272.27-.44.646-.44 1.06 0 .414.168.79.44 1.06.27.272.646.44 1.06.44.414 0 .79-.168 1.06-.44.272-.27.44-.646.44-1.06 0-.414-.168-.79-.44-1.06-.27-.272-.646-.44-1.06-.44z" transform="translate(-16 -128) translate(0 120) translate(16 8)"/>
                </g>
            </g>
        </g>
    </g>
</svg>
